<?xml version="1.0" encoding="UTF-8" standalone="no"?>
<svg
   viewBox="0 0 500 200"
   version="1.1"
   id="svg40"
   sodipodi:docname="spatial-ml-logo-horizontal.svg"
   inkscape:version="1.4.2 (ebf0e940d0, 2025-05-08)"
   xmlns:inkscape="http://www.inkscape.org/namespaces/inkscape"
   xmlns:sodipodi="http://sodipodi.sourceforge.net/DTD/sodipodi-0.dtd"
   xmlns="http://www.w3.org/2000/svg"
   xmlns:svg="http://www.w3.org/2000/svg">
  <defs
     id="defs40" />
  <sodipodi:namedview
     id="namedview40"
     pagecolor="#ffffff"
     bordercolor="#000000"
     borderopacity="0.25"
     inkscape:showpageshadow="2"
     inkscape:pageopacity="0.0"
     inkscape:pagecheckerboard="0"
     inkscape:deskcolor="#d1d1d1"
     inkscape:zoom="4.892"
     inkscape:cx="249.89779"
     inkscape:cy="100.06132"
     inkscape:window-width="2550"
     inkscape:window-height="1384"
     inkscape:window-x="2880"
     inkscape:window-y="51"
     inkscape:window-maximized="1"
     inkscape:current-layer="svg40" />
  <!-- Background rectangle -->
  <rect
     width="500"
     height="200"
     fill="#ffffff"
     id="rect1" />
  <!-- Square grid -->
  <g
     stroke="#2c3e50"
     stroke-width="1"
     id="g10">
    <line
       x1="20"
       y1="20"
       x2="180"
       y2="20"
       id="line1" />
    <line
       x1="20"
       y1="60"
       x2="180"
       y2="60"
       id="line2" />
    <line
       x1="20"
       y1="100"
       x2="180"
       y2="100"
       id="line3" />
    <line
       x1="20"
       y1="140"
       x2="180"
       y2="140"
       id="line4" />
    <line
       x1="20"
       y1="180"
       x2="180"
       y2="180"
       id="line5" />
    <line
       x1="20"
       y1="20"
       x2="20"
       y2="180"
       id="line6" />
    <line
       x1="60"
       y1="20"
       x2="60"
       y2="180"
       id="line7" />
    <line
       x1="100"
       y1="20"
       x2="100"
       y2="180"
       id="line8" />
    <line
       x1="140"
       y1="20"
       x2="140"
       y2="180"
       id="line9" />
    <line
       x1="180"
       y1="20"
       x2="180"
       y2="180"
       id="line10" />
  </g>
  <!-- Dots representing data points -->
  <g
     fill="#3498db"
     id="g34">
    <circle
       cx="20"
       cy="20"
       r="3"
       id="circle10" />
    <circle
       cx="60"
       cy="20"
       r="3"
       id="circle11" />
    <circle
       cx="100"
       cy="20"
       r="3"
       id="circle12" />
    <circle
       cx="140"
       cy="20"
       r="3"
       id="circle13" />
    <circle
       cx="180"
       cy="20"
       r="3"
       id="circle14" />
    <circle
       cx="20"
       cy="60"
       r="3"
       id="circle15" />
    <circle
       cx="60"
       cy="60"
       r="3"
       id="circle16" />
    <circle
       cx="100"
       cy="60"
       r="3"
       id="circle17" />
    <circle
       cx="140"
       cy="60"
       r="3"
       id="circle18" />
    <circle
       cx="180"
       cy="60"
       r="3"
       id="circle19" />
    <circle
       cx="20"
       cy="100"
       r="3"
       id="circle20" />
    <circle
       cx="60"
       cy="100"
       r="3"
       id="circle21" />
    <circle
       cx="100"
       cy="100"
       r="3"
       id="circle22" />
    <circle
       cx="140"
       cy="100"
       r="3"
       id="circle23" />
    <circle
       cx="180"
       cy="100"
       r="3"
       id="circle24" />
    <circle
       cx="20"
       cy="140"
       r="3"
       id="circle25" />
    <circle
       cx="60"
       cy="140"
       r="3"
       id="circle26" />
    <circle
       cx="100"
       cy="140"
       r="3"
       id="circle27" />
    <circle
       cx="140"
       cy="140"
       r="3"
       id="circle28" />
    <circle
       cx="180"
       cy="140"
       r="3"
       id="circle29" />
    <circle
       cx="20"
       cy="180"
       r="3"
       id="circle30" />
    <circle
       cx="60"
       cy="180"
       r="3"
       id="circle31" />
    <circle
       cx="100"
       cy="180"
       r="3"
       id="circle32" />
    <circle
       cx="140"
       cy="180"
       r="3"
       id="circle33" />
    <circle
       cx="180"
       cy="180"
       r="3"
       id="circle34" />
  </g>
  <!-- Connecting lines suggesting ML relationships -->
  <g
     stroke="#3498db"
     stroke-width="1.5"
     id="g37">
    <line
       x1="20"
       y1="20"
       x2="180"
       y2="180"
       id="line34" />
    <line
       x1="20"
       y1="180"
       x2="180"
       y2="20"
       id="line35" />
    <line
       x1="100"
       y1="20"
       x2="100"
       y2="180"
       id="line36" />
    <line
       x1="20"
       y1="100"
       x2="180"
       y2="100"
       id="line37" />
  </g>
  <!-- Text -->
  <text
     x="220"
     y="80"
     font-family="Roboto, Arial, sans-serif"
     font-size="24"
     font-weight="700"
     fill="#2c3e50"
     id="text37">ADVANCES IN</text>
  <text
     x="220"
     y="115"
     font-family="Roboto, Arial, sans-serif"
     font-size="24"
     font-weight="700"
     fill="#2c3e50"
     id="text38">SPATIAL MACHINE</text>
  <text
     x="220"
     y="150"
     font-family="Roboto, Arial, sans-serif"
     font-size="24"
     font-weight="700"
     fill="#2c3e50"
     id="text39">LEARNING</text>
  <text
     x="220"
     y="180"
     font-family="Roboto, Arial, sans-serif"
     font-size="24px"
     font-weight="700"
     fill="#3498db"
     id="text40"
     inkscape:export-filename="spatial-ml-logo-horizontal.png"
     inkscape:export-xdpi="96"
     inkscape:export-ydpi="96">2026</text>
</svg>
